<mxfile host="app.diagrams.net" modified="2022-08-08T07:33:46.690Z" agent="5.0 (Windows NT 10.0; Win64; x64) AppleWebKit/537.36 (KHTML, like Gecko) Chrome/103.0.0.0 Safari/537.36" etag="SDbOAAt58t04nitjAS2w" version="20.0.4" type="github">
  <diagram id="g8rXSoGsDJZ8JwAvWq1k" name="Page-1">
    <mxGraphModel dx="2012" dy="670" grid="1" gridSize="10" guides="1" tooltips="1" connect="1" arrows="1" fold="1" page="1" pageScale="1" pageWidth="827" pageHeight="1169" background="none" math="0" shadow="0">
      <root>
        <mxCell id="0" />
        <mxCell id="1" parent="0" />
        <mxCell id="1YP1QLjjfI-7xoascXg8-77" style="edgeStyle=orthogonalEdgeStyle;rounded=0;orthogonalLoop=1;jettySize=auto;html=1;" edge="1" parent="1" source="1YP1QLjjfI-7xoascXg8-9">
          <mxGeometry relative="1" as="geometry">
            <mxPoint x="380" y="225" as="targetPoint" />
          </mxGeometry>
        </mxCell>
        <mxCell id="1YP1QLjjfI-7xoascXg8-9" value="古诗内容：&lt;br&gt;&lt;br&gt;春眠不觉晓&lt;br&gt;秋呓八首其三&lt;br&gt;&amp;nbsp;万玉妃来不动尘&lt;br&gt;......&lt;br&gt;..." style="ellipse;shape=cloud;whiteSpace=wrap;html=1;fillColor=#dae8fc;strokeColor=#6c8ebf;" vertex="1" parent="1">
          <mxGeometry x="30" y="130" width="220" height="190" as="geometry" />
        </mxCell>
        <mxCell id="1YP1QLjjfI-7xoascXg8-19" value="" style="shape=table;startSize=0;container=1;collapsible=0;childLayout=tableLayout;fillColor=#ffe6cc;strokeColor=#d79b00;" vertex="1" parent="1">
          <mxGeometry x="250" y="400" width="520" height="220" as="geometry" />
        </mxCell>
        <mxCell id="1YP1QLjjfI-7xoascXg8-20" value="" style="shape=tableRow;horizontal=0;startSize=0;swimlaneHead=0;swimlaneBody=0;top=0;left=0;bottom=0;right=0;collapsible=0;dropTarget=0;fillColor=none;points=[[0,0.5],[1,0.5]];portConstraint=eastwest;" vertex="1" parent="1YP1QLjjfI-7xoascXg8-19">
          <mxGeometry width="520" height="40" as="geometry" />
        </mxCell>
        <mxCell id="1YP1QLjjfI-7xoascXg8-21" value="索引" style="shape=partialRectangle;html=1;whiteSpace=wrap;connectable=0;overflow=hidden;fillColor=none;top=0;left=0;bottom=0;right=0;pointerEvents=1;" vertex="1" parent="1YP1QLjjfI-7xoascXg8-20">
          <mxGeometry width="132" height="40" as="geometry">
            <mxRectangle width="132" height="40" as="alternateBounds" />
          </mxGeometry>
        </mxCell>
        <mxCell id="1YP1QLjjfI-7xoascXg8-22" value="内容" style="shape=partialRectangle;html=1;whiteSpace=wrap;connectable=0;overflow=hidden;fillColor=none;top=0;left=0;bottom=0;right=0;pointerEvents=1;" vertex="1" parent="1YP1QLjjfI-7xoascXg8-20">
          <mxGeometry x="132" width="118" height="40" as="geometry">
            <mxRectangle width="118" height="40" as="alternateBounds" />
          </mxGeometry>
        </mxCell>
        <mxCell id="1YP1QLjjfI-7xoascXg8-23" value="标识" style="shape=partialRectangle;html=1;whiteSpace=wrap;connectable=0;overflow=hidden;fillColor=none;top=0;left=0;bottom=0;right=0;pointerEvents=1;" vertex="1" parent="1YP1QLjjfI-7xoascXg8-20">
          <mxGeometry x="250" width="100" height="40" as="geometry">
            <mxRectangle width="100" height="40" as="alternateBounds" />
          </mxGeometry>
        </mxCell>
        <mxCell id="1YP1QLjjfI-7xoascXg8-24" value="拼音" style="shape=partialRectangle;html=1;whiteSpace=wrap;connectable=0;overflow=hidden;fillColor=none;top=0;left=0;bottom=0;right=0;pointerEvents=1;" vertex="1" parent="1YP1QLjjfI-7xoascXg8-20">
          <mxGeometry x="350" width="170" height="40" as="geometry">
            <mxRectangle width="170" height="40" as="alternateBounds" />
          </mxGeometry>
        </mxCell>
        <mxCell id="1YP1QLjjfI-7xoascXg8-25" value="" style="shape=tableRow;horizontal=0;startSize=0;swimlaneHead=0;swimlaneBody=0;top=0;left=0;bottom=0;right=0;collapsible=0;dropTarget=0;fillColor=none;points=[[0,0.5],[1,0.5]];portConstraint=eastwest;" vertex="1" parent="1YP1QLjjfI-7xoascXg8-19">
          <mxGeometry y="40" width="520" height="40" as="geometry" />
        </mxCell>
        <mxCell id="1YP1QLjjfI-7xoascXg8-26" value="1" style="shape=partialRectangle;html=1;whiteSpace=wrap;connectable=0;overflow=hidden;fillColor=none;top=0;left=0;bottom=0;right=0;pointerEvents=1;" vertex="1" parent="1YP1QLjjfI-7xoascXg8-25">
          <mxGeometry width="132" height="40" as="geometry">
            <mxRectangle width="132" height="40" as="alternateBounds" />
          </mxGeometry>
        </mxCell>
        <mxCell id="1YP1QLjjfI-7xoascXg8-27" value="&lt;span style=&quot;text-align: left;&quot;&gt;春眠不觉晓&lt;/span&gt;" style="shape=partialRectangle;html=1;whiteSpace=wrap;connectable=0;overflow=hidden;fillColor=none;top=0;left=0;bottom=0;right=0;pointerEvents=1;" vertex="1" parent="1YP1QLjjfI-7xoascXg8-25">
          <mxGeometry x="132" width="118" height="40" as="geometry">
            <mxRectangle width="118" height="40" as="alternateBounds" />
          </mxGeometry>
        </mxCell>
        <mxCell id="1YP1QLjjfI-7xoascXg8-28" value="诗句" style="shape=partialRectangle;html=1;whiteSpace=wrap;connectable=0;overflow=hidden;fillColor=none;top=0;left=0;bottom=0;right=0;pointerEvents=1;" vertex="1" parent="1YP1QLjjfI-7xoascXg8-25">
          <mxGeometry x="250" width="100" height="40" as="geometry">
            <mxRectangle width="100" height="40" as="alternateBounds" />
          </mxGeometry>
        </mxCell>
        <mxCell id="1YP1QLjjfI-7xoascXg8-29" value="chunmianbujuexiao" style="shape=partialRectangle;html=1;whiteSpace=wrap;connectable=0;overflow=hidden;fillColor=none;top=0;left=0;bottom=0;right=0;pointerEvents=1;" vertex="1" parent="1YP1QLjjfI-7xoascXg8-25">
          <mxGeometry x="350" width="170" height="40" as="geometry">
            <mxRectangle width="170" height="40" as="alternateBounds" />
          </mxGeometry>
        </mxCell>
        <mxCell id="1YP1QLjjfI-7xoascXg8-30" value="" style="shape=tableRow;horizontal=0;startSize=0;swimlaneHead=0;swimlaneBody=0;top=0;left=0;bottom=0;right=0;collapsible=0;dropTarget=0;fillColor=none;points=[[0,0.5],[1,0.5]];portConstraint=eastwest;" vertex="1" parent="1YP1QLjjfI-7xoascXg8-19">
          <mxGeometry y="80" width="520" height="40" as="geometry" />
        </mxCell>
        <mxCell id="1YP1QLjjfI-7xoascXg8-31" value="2" style="shape=partialRectangle;html=1;whiteSpace=wrap;connectable=0;overflow=hidden;fillColor=none;top=0;left=0;bottom=0;right=0;pointerEvents=1;" vertex="1" parent="1YP1QLjjfI-7xoascXg8-30">
          <mxGeometry width="132" height="40" as="geometry">
            <mxRectangle width="132" height="40" as="alternateBounds" />
          </mxGeometry>
        </mxCell>
        <mxCell id="1YP1QLjjfI-7xoascXg8-32" value="&lt;span style=&quot;text-align: left;&quot;&gt;秋呓八首其三&lt;/span&gt;" style="shape=partialRectangle;html=1;whiteSpace=wrap;connectable=0;overflow=hidden;fillColor=none;top=0;left=0;bottom=0;right=0;pointerEvents=1;" vertex="1" parent="1YP1QLjjfI-7xoascXg8-30">
          <mxGeometry x="132" width="118" height="40" as="geometry">
            <mxRectangle width="118" height="40" as="alternateBounds" />
          </mxGeometry>
        </mxCell>
        <mxCell id="1YP1QLjjfI-7xoascXg8-33" value="题目" style="shape=partialRectangle;html=1;whiteSpace=wrap;connectable=0;overflow=hidden;fillColor=none;top=0;left=0;bottom=0;right=0;pointerEvents=1;" vertex="1" parent="1YP1QLjjfI-7xoascXg8-30">
          <mxGeometry x="250" width="100" height="40" as="geometry">
            <mxRectangle width="100" height="40" as="alternateBounds" />
          </mxGeometry>
        </mxCell>
        <mxCell id="1YP1QLjjfI-7xoascXg8-34" value="qiuyibashouqisan" style="shape=partialRectangle;html=1;whiteSpace=wrap;connectable=0;overflow=hidden;fillColor=none;top=0;left=0;bottom=0;right=0;pointerEvents=1;" vertex="1" parent="1YP1QLjjfI-7xoascXg8-30">
          <mxGeometry x="350" width="170" height="40" as="geometry">
            <mxRectangle width="170" height="40" as="alternateBounds" />
          </mxGeometry>
        </mxCell>
        <mxCell id="1YP1QLjjfI-7xoascXg8-35" value="" style="shape=tableRow;horizontal=0;startSize=0;swimlaneHead=0;swimlaneBody=0;top=0;left=0;bottom=0;right=0;collapsible=0;dropTarget=0;fillColor=none;points=[[0,0.5],[1,0.5]];portConstraint=eastwest;" vertex="1" parent="1YP1QLjjfI-7xoascXg8-19">
          <mxGeometry y="120" width="520" height="40" as="geometry" />
        </mxCell>
        <mxCell id="1YP1QLjjfI-7xoascXg8-36" value="3" style="shape=partialRectangle;html=1;whiteSpace=wrap;connectable=0;overflow=hidden;fillColor=none;top=0;left=0;bottom=0;right=0;pointerEvents=1;" vertex="1" parent="1YP1QLjjfI-7xoascXg8-35">
          <mxGeometry width="132" height="40" as="geometry">
            <mxRectangle width="132" height="40" as="alternateBounds" />
          </mxGeometry>
        </mxCell>
        <mxCell id="1YP1QLjjfI-7xoascXg8-37" value="&lt;span style=&quot;text-align: left;&quot;&gt;万玉妃来不动尘&lt;/span&gt;" style="shape=partialRectangle;html=1;whiteSpace=wrap;connectable=0;overflow=hidden;fillColor=none;top=0;left=0;bottom=0;right=0;pointerEvents=1;" vertex="1" parent="1YP1QLjjfI-7xoascXg8-35">
          <mxGeometry x="132" width="118" height="40" as="geometry">
            <mxRectangle width="118" height="40" as="alternateBounds" />
          </mxGeometry>
        </mxCell>
        <mxCell id="1YP1QLjjfI-7xoascXg8-38" value="诗句" style="shape=partialRectangle;html=1;whiteSpace=wrap;connectable=0;overflow=hidden;fillColor=none;top=0;left=0;bottom=0;right=0;pointerEvents=1;" vertex="1" parent="1YP1QLjjfI-7xoascXg8-35">
          <mxGeometry x="250" width="100" height="40" as="geometry">
            <mxRectangle width="100" height="40" as="alternateBounds" />
          </mxGeometry>
        </mxCell>
        <mxCell id="1YP1QLjjfI-7xoascXg8-39" value="wanyufeilaibudongchen" style="shape=partialRectangle;html=1;whiteSpace=wrap;connectable=0;overflow=hidden;fillColor=none;top=0;left=0;bottom=0;right=0;pointerEvents=1;" vertex="1" parent="1YP1QLjjfI-7xoascXg8-35">
          <mxGeometry x="350" width="170" height="40" as="geometry">
            <mxRectangle width="170" height="40" as="alternateBounds" />
          </mxGeometry>
        </mxCell>
        <mxCell id="1YP1QLjjfI-7xoascXg8-40" value="" style="shape=tableRow;horizontal=0;startSize=0;swimlaneHead=0;swimlaneBody=0;top=0;left=0;bottom=0;right=0;collapsible=0;dropTarget=0;fillColor=none;points=[[0,0.5],[1,0.5]];portConstraint=eastwest;" vertex="1" parent="1YP1QLjjfI-7xoascXg8-19">
          <mxGeometry y="160" width="520" height="30" as="geometry" />
        </mxCell>
        <mxCell id="1YP1QLjjfI-7xoascXg8-41" value="4" style="shape=partialRectangle;html=1;whiteSpace=wrap;connectable=0;overflow=hidden;fillColor=none;top=0;left=0;bottom=0;right=0;pointerEvents=1;" vertex="1" parent="1YP1QLjjfI-7xoascXg8-40">
          <mxGeometry width="132" height="30" as="geometry">
            <mxRectangle width="132" height="30" as="alternateBounds" />
          </mxGeometry>
        </mxCell>
        <mxCell id="1YP1QLjjfI-7xoascXg8-42" value="......" style="shape=partialRectangle;html=1;whiteSpace=wrap;connectable=0;overflow=hidden;fillColor=none;top=0;left=0;bottom=0;right=0;pointerEvents=1;" vertex="1" parent="1YP1QLjjfI-7xoascXg8-40">
          <mxGeometry x="132" width="118" height="30" as="geometry">
            <mxRectangle width="118" height="30" as="alternateBounds" />
          </mxGeometry>
        </mxCell>
        <mxCell id="1YP1QLjjfI-7xoascXg8-43" value="..." style="shape=partialRectangle;html=1;whiteSpace=wrap;connectable=0;overflow=hidden;fillColor=none;top=0;left=0;bottom=0;right=0;pointerEvents=1;" vertex="1" parent="1YP1QLjjfI-7xoascXg8-40">
          <mxGeometry x="250" width="100" height="30" as="geometry">
            <mxRectangle width="100" height="30" as="alternateBounds" />
          </mxGeometry>
        </mxCell>
        <mxCell id="1YP1QLjjfI-7xoascXg8-44" value="....." style="shape=partialRectangle;html=1;whiteSpace=wrap;connectable=0;overflow=hidden;fillColor=none;top=0;left=0;bottom=0;right=0;pointerEvents=1;" vertex="1" parent="1YP1QLjjfI-7xoascXg8-40">
          <mxGeometry x="350" width="170" height="30" as="geometry">
            <mxRectangle width="170" height="30" as="alternateBounds" />
          </mxGeometry>
        </mxCell>
        <mxCell id="1YP1QLjjfI-7xoascXg8-45" style="shape=tableRow;horizontal=0;startSize=0;swimlaneHead=0;swimlaneBody=0;top=0;left=0;bottom=0;right=0;collapsible=0;dropTarget=0;fillColor=none;points=[[0,0.5],[1,0.5]];portConstraint=eastwest;" vertex="1" parent="1YP1QLjjfI-7xoascXg8-19">
          <mxGeometry y="190" width="520" height="30" as="geometry" />
        </mxCell>
        <mxCell id="1YP1QLjjfI-7xoascXg8-46" value="5" style="shape=partialRectangle;html=1;whiteSpace=wrap;connectable=0;overflow=hidden;fillColor=none;top=0;left=0;bottom=0;right=0;pointerEvents=1;" vertex="1" parent="1YP1QLjjfI-7xoascXg8-45">
          <mxGeometry width="132" height="30" as="geometry">
            <mxRectangle width="132" height="30" as="alternateBounds" />
          </mxGeometry>
        </mxCell>
        <mxCell id="1YP1QLjjfI-7xoascXg8-47" value="..." style="shape=partialRectangle;html=1;whiteSpace=wrap;connectable=0;overflow=hidden;fillColor=none;top=0;left=0;bottom=0;right=0;pointerEvents=1;" vertex="1" parent="1YP1QLjjfI-7xoascXg8-45">
          <mxGeometry x="132" width="118" height="30" as="geometry">
            <mxRectangle width="118" height="30" as="alternateBounds" />
          </mxGeometry>
        </mxCell>
        <mxCell id="1YP1QLjjfI-7xoascXg8-48" value="..." style="shape=partialRectangle;html=1;whiteSpace=wrap;connectable=0;overflow=hidden;fillColor=none;top=0;left=0;bottom=0;right=0;pointerEvents=1;" vertex="1" parent="1YP1QLjjfI-7xoascXg8-45">
          <mxGeometry x="250" width="100" height="30" as="geometry">
            <mxRectangle width="100" height="30" as="alternateBounds" />
          </mxGeometry>
        </mxCell>
        <mxCell id="1YP1QLjjfI-7xoascXg8-49" value="..." style="shape=partialRectangle;html=1;whiteSpace=wrap;connectable=0;overflow=hidden;fillColor=none;top=0;left=0;bottom=0;right=0;pointerEvents=1;" vertex="1" parent="1YP1QLjjfI-7xoascXg8-45">
          <mxGeometry x="350" width="170" height="30" as="geometry">
            <mxRectangle width="170" height="30" as="alternateBounds" />
          </mxGeometry>
        </mxCell>
        <mxCell id="1YP1QLjjfI-7xoascXg8-58" value="Bi-Gram字典" style="swimlane;" vertex="1" parent="1">
          <mxGeometry x="400" y="125" width="200" height="200" as="geometry" />
        </mxCell>
        <mxCell id="1YP1QLjjfI-7xoascXg8-59" value="春眠" style="text;html=1;align=center;verticalAlign=middle;resizable=0;points=[];autosize=1;strokeColor=none;fillColor=none;" vertex="1" parent="1YP1QLjjfI-7xoascXg8-58">
          <mxGeometry x="20" y="40" width="50" height="30" as="geometry" />
        </mxCell>
        <mxCell id="1YP1QLjjfI-7xoascXg8-60" value="眠不" style="text;html=1;align=center;verticalAlign=middle;resizable=0;points=[];autosize=1;strokeColor=none;fillColor=none;" vertex="1" parent="1YP1QLjjfI-7xoascXg8-58">
          <mxGeometry y="70" width="50" height="30" as="geometry" />
        </mxCell>
        <mxCell id="1YP1QLjjfI-7xoascXg8-61" value="不觉" style="text;html=1;align=center;verticalAlign=middle;resizable=0;points=[];autosize=1;strokeColor=none;fillColor=none;" vertex="1" parent="1YP1QLjjfI-7xoascXg8-58">
          <mxGeometry x="20" y="110" width="50" height="30" as="geometry" />
        </mxCell>
        <mxCell id="1YP1QLjjfI-7xoascXg8-62" value="觉晓" style="text;html=1;align=center;verticalAlign=middle;resizable=0;points=[];autosize=1;strokeColor=none;fillColor=none;" vertex="1" parent="1YP1QLjjfI-7xoascXg8-58">
          <mxGeometry x="10" y="150" width="50" height="30" as="geometry" />
        </mxCell>
        <mxCell id="1YP1QLjjfI-7xoascXg8-64" value="&lt;span style=&quot;&quot;&gt;秋呓&lt;/span&gt;" style="text;html=1;align=center;verticalAlign=middle;resizable=0;points=[];autosize=1;strokeColor=none;fillColor=none;" vertex="1" parent="1YP1QLjjfI-7xoascXg8-58">
          <mxGeometry x="60" y="40" width="50" height="30" as="geometry" />
        </mxCell>
        <mxCell id="1YP1QLjjfI-7xoascXg8-66" value="八首" style="text;html=1;align=center;verticalAlign=middle;resizable=0;points=[];autosize=1;strokeColor=none;fillColor=none;" vertex="1" parent="1YP1QLjjfI-7xoascXg8-58">
          <mxGeometry x="50" y="80" width="50" height="30" as="geometry" />
        </mxCell>
        <mxCell id="1YP1QLjjfI-7xoascXg8-67" value="首其" style="text;html=1;align=center;verticalAlign=middle;resizable=0;points=[];autosize=1;strokeColor=none;fillColor=none;" vertex="1" parent="1YP1QLjjfI-7xoascXg8-58">
          <mxGeometry x="59" y="130" width="50" height="30" as="geometry" />
        </mxCell>
        <mxCell id="1YP1QLjjfI-7xoascXg8-68" value="其三" style="text;html=1;align=center;verticalAlign=middle;resizable=0;points=[];autosize=1;strokeColor=none;fillColor=none;" vertex="1" parent="1YP1QLjjfI-7xoascXg8-58">
          <mxGeometry x="109" y="60" width="50" height="30" as="geometry" />
        </mxCell>
        <mxCell id="1YP1QLjjfI-7xoascXg8-72" value="万玉" style="text;html=1;align=center;verticalAlign=middle;resizable=0;points=[];autosize=1;strokeColor=none;fillColor=none;" vertex="1" parent="1YP1QLjjfI-7xoascXg8-58">
          <mxGeometry x="110" y="160" width="50" height="30" as="geometry" />
        </mxCell>
        <mxCell id="1YP1QLjjfI-7xoascXg8-74" value="&lt;b&gt;......&lt;/b&gt;" style="text;html=1;align=center;verticalAlign=middle;resizable=0;points=[];autosize=1;strokeColor=none;fillColor=none;" vertex="1" parent="1YP1QLjjfI-7xoascXg8-58">
          <mxGeometry x="154" y="70" width="40" height="30" as="geometry" />
        </mxCell>
        <mxCell id="1YP1QLjjfI-7xoascXg8-75" value="&lt;b&gt;......&lt;/b&gt;" style="text;html=1;align=center;verticalAlign=middle;resizable=0;points=[];autosize=1;strokeColor=none;fillColor=none;" vertex="1" parent="1YP1QLjjfI-7xoascXg8-58">
          <mxGeometry x="79" y="100" width="40" height="30" as="geometry" />
        </mxCell>
        <mxCell id="1YP1QLjjfI-7xoascXg8-69" value="不动" style="text;html=1;align=center;verticalAlign=middle;resizable=0;points=[];autosize=1;strokeColor=none;fillColor=none;" vertex="1" parent="1YP1QLjjfI-7xoascXg8-58">
          <mxGeometry x="119" y="125" width="50" height="30" as="geometry" />
        </mxCell>
        <mxCell id="1YP1QLjjfI-7xoascXg8-76" value="&lt;b&gt;......&lt;/b&gt;" style="text;html=1;align=center;verticalAlign=middle;resizable=0;points=[];autosize=1;strokeColor=none;fillColor=none;" vertex="1" parent="1">
          <mxGeometry x="480" y="265" width="40" height="30" as="geometry" />
        </mxCell>
        <mxCell id="1YP1QLjjfI-7xoascXg8-78" value="倒排索引" style="swimlane;fontStyle=0;childLayout=stackLayout;horizontal=1;startSize=30;horizontalStack=0;resizeParent=1;resizeParentMax=0;resizeLast=0;collapsible=1;marginBottom=0;fillColor=#dae8fc;strokeColor=#6c8ebf;" vertex="1" parent="1">
          <mxGeometry x="-50" y="420" width="190" height="180" as="geometry" />
        </mxCell>
        <mxCell id="1YP1QLjjfI-7xoascXg8-79" value="春眠    【1，188，3567, ...】" style="text;strokeColor=none;fillColor=none;align=left;verticalAlign=middle;spacingLeft=4;spacingRight=4;overflow=hidden;points=[[0,0.5],[1,0.5]];portConstraint=eastwest;rotatable=0;" vertex="1" parent="1YP1QLjjfI-7xoascXg8-78">
          <mxGeometry y="30" width="190" height="30" as="geometry" />
        </mxCell>
        <mxCell id="1YP1QLjjfI-7xoascXg8-80" value="眠不    【1，456，2393，...】" style="text;strokeColor=none;fillColor=none;align=left;verticalAlign=middle;spacingLeft=4;spacingRight=4;overflow=hidden;points=[[0,0.5],[1,0.5]];portConstraint=eastwest;rotatable=0;" vertex="1" parent="1YP1QLjjfI-7xoascXg8-78">
          <mxGeometry y="60" width="190" height="30" as="geometry" />
        </mxCell>
        <mxCell id="1YP1QLjjfI-7xoascXg8-81" value="八首    【2，875，9533，...】" style="text;strokeColor=none;fillColor=none;align=left;verticalAlign=middle;spacingLeft=4;spacingRight=4;overflow=hidden;points=[[0,0.5],[1,0.5]];portConstraint=eastwest;rotatable=0;" vertex="1" parent="1YP1QLjjfI-7xoascXg8-78">
          <mxGeometry y="90" width="190" height="30" as="geometry" />
        </mxCell>
        <mxCell id="1YP1QLjjfI-7xoascXg8-82" value="......    【764,3888,9432,......】" style="text;strokeColor=none;fillColor=none;align=left;verticalAlign=middle;spacingLeft=4;spacingRight=4;overflow=hidden;points=[[0,0.5],[1,0.5]];portConstraint=eastwest;rotatable=0;" vertex="1" parent="1YP1QLjjfI-7xoascXg8-78">
          <mxGeometry y="120" width="190" height="30" as="geometry" />
        </mxCell>
        <mxCell id="1YP1QLjjfI-7xoascXg8-83" value="......    【...】" style="text;strokeColor=none;fillColor=none;align=left;verticalAlign=middle;spacingLeft=4;spacingRight=4;overflow=hidden;points=[[0,0.5],[1,0.5]];portConstraint=eastwest;rotatable=0;" vertex="1" parent="1YP1QLjjfI-7xoascXg8-78">
          <mxGeometry y="150" width="190" height="30" as="geometry" />
        </mxCell>
        <mxCell id="1YP1QLjjfI-7xoascXg8-84" style="edgeStyle=orthogonalEdgeStyle;rounded=0;orthogonalLoop=1;jettySize=auto;html=1;" edge="1" parent="1" source="1YP1QLjjfI-7xoascXg8-81">
          <mxGeometry relative="1" as="geometry">
            <mxPoint x="230" y="525" as="targetPoint" />
          </mxGeometry>
        </mxCell>
      </root>
    </mxGraphModel>
  </diagram>
</mxfile>
